<svg width="186" height="228" viewBox="0 0 186 228" fill="none" xmlns="http://www.w3.org/2000/svg">
<path d="M62.3207 32.0824L1.04918 66.9084C0.400625 67.277 0 67.9656 0 68.7116V172.069C0 172.806 0.390901 173.488 1.02691 173.86L92.5313 227.381C93.1842 227.763 93.993 227.759 94.6423 227.371L184.207 173.863C184.834 173.488 185.217 172.812 185.217 172.082V68.7098C185.217 67.9647 184.818 67.2769 184.171 66.9079L123.21 32.1531C122.025 31.4777 120.523 32.1097 120.177 33.4288L109.668 73.5026C109.44 74.3719 109.798 75.2891 110.555 75.7744L139.528 94.3613C140.123 94.7428 140.483 95.4006 140.483 96.1071V150.091C140.483 150.83 140.09 151.513 139.451 151.884L94.6281 177.953C93.9858 178.326 93.1928 178.328 92.5491 177.957L47.3422 151.883C46.7 151.512 46.3043 150.827 46.3043 150.086V96.126C46.3043 95.4092 46.6744 94.7433 47.283 94.3647L77.115 75.8107C77.9193 75.3104 78.2826 74.3287 77.9975 73.4254L65.3235 33.2614C64.9261 32.002 63.4687 31.4298 62.3207 32.0824Z" fill="#00DD87"/>
<g filter="url(#filter0_d_1314_247)">
<path d="M92.9125 72.1903L76.3682 30.6457C76.0115 29.7501 76.424 28.7319 77.3029 28.3359C87.6502 23.674 99.51 23.6695 109.857 28.3314C110.741 28.7294 111.151 29.7547 110.785 30.652L93.8744 72.194C93.6984 72.6264 93.0852 72.6241 92.9125 72.1903Z" fill="#00DD87"/>
</g>
<defs>
<filter id="filter0_d_1314_247" x="50.3143" y="0.98604" width="86.5296" height="99.5315" filterUnits="userSpaceOnUse" color-interpolation-filters="sRGB">
<feFlood flood-opacity="0" result="BackgroundImageFix"/>
<feColorMatrix in="SourceAlpha" type="matrix" values="0 0 0 0 0 0 0 0 0 0 0 0 0 0 0 0 0 0 127 0" result="hardAlpha"/>
<feOffset dy="2.07407"/>
<feGaussianBlur stdDeviation="12.963"/>
<feComposite in2="hardAlpha" operator="out"/>
<feColorMatrix type="matrix" values="0 0 0 0 1 0 0 0 0 1 0 0 0 0 1 0 0 0 0.38 0"/>
<feBlend mode="normal" in2="BackgroundImageFix" result="effect1_dropShadow_1314_247"/>
<feBlend mode="normal" in="SourceGraphic" in2="effect1_dropShadow_1314_247" result="shape"/>
</filter>
</defs>
</svg>
