<svg width="69" height="99" viewBox="0 0 69 99" fill="none" xmlns="http://www.w3.org/2000/svg">
<path d="M22.3639 27.8714L1.94371 39.478C1.29516 39.8466 0.894531 40.5352 0.894531 41.2812V77.7124C0.894531 78.4492 1.28543 79.1307 1.92144 79.5027L34.1976 98.3812C34.8504 98.7631 35.6593 98.7593 36.3085 98.3714L67.8867 79.5057C68.5133 79.1313 68.897 78.4551 68.897 77.7252V41.2794C68.897 40.5343 68.4974 39.8465 67.8502 39.4775L47.617 27.9421C46.4323 27.2667 44.9294 27.8988 44.5835 29.2179L41.4012 41.3538C41.1732 42.2231 41.5311 43.1403 42.2875 43.6256L51.5185 49.5474C52.1131 49.9288 52.4727 50.5867 52.4727 51.2931V69.6409C52.4727 70.3795 52.0799 71.0624 51.4414 71.4338L36.2944 80.2431C35.6521 80.6167 34.859 80.6181 34.2154 80.2469L18.933 71.4325C18.2908 71.0622 17.8952 70.3772 17.8952 69.6359V51.312C17.8952 50.5953 18.2652 49.9293 18.8738 49.5508L28.3422 43.6619C29.1466 43.1616 29.5098 42.1799 29.2247 41.2766L25.3667 29.0504C24.9693 27.7911 23.5119 27.2189 22.3639 27.8714Z" fill="#00DD87"/>
<g filter="url(#filter0_d_1292_64)">
<path d="M34.7061 41.0374L28.9333 26.5414C28.8024 26.2126 28.9538 25.8388 29.2765 25.6934C33.0755 23.9817 37.4299 23.9801 41.2289 25.6917C41.5531 25.8378 41.7037 26.2143 41.5696 26.5437L35.668 41.041C35.492 41.4735 34.8788 41.4712 34.7061 41.0374Z" fill="#00DD87"/>
</g>
<defs>
<filter id="filter0_d_1292_64" x="2.96079" y="0.556353" width="64.5843" height="68.8069" filterUnits="userSpaceOnUse" color-interpolation-filters="sRGB">
<feFlood flood-opacity="0" result="BackgroundImageFix"/>
<feColorMatrix in="SourceAlpha" type="matrix" values="0 0 0 0 0 0 0 0 0 0 0 0 0 0 0 0 0 0 127 0" result="hardAlpha"/>
<feOffset dy="2.07407"/>
<feGaussianBlur stdDeviation="12.963"/>
<feComposite in2="hardAlpha" operator="out"/>
<feColorMatrix type="matrix" values="0 0 0 0 1 0 0 0 0 1 0 0 0 0 1 0 0 0 0.38 0"/>
<feBlend mode="normal" in2="BackgroundImageFix" result="effect1_dropShadow_1292_64"/>
<feBlend mode="normal" in="SourceGraphic" in2="effect1_dropShadow_1292_64" result="shape"/>
</filter>
</defs>
</svg>
