<svg width="43" height="43" viewBox="0 0 43 43" fill="none" xmlns="http://www.w3.org/2000/svg">
<path d="M21.5004 14.6004C17.7013 14.6004 14.601 17.7007 14.601 21.4997C14.601 25.2987 17.7013 28.399 21.5004 28.399C25.2994 28.399 28.3997 25.2987 28.3997 21.4997C28.3997 17.7007 25.2994 14.6004 21.5004 14.6004ZM42.1931 21.4997C42.1931 18.6427 42.219 15.8115 42.0586 12.9596C41.8981 9.64714 41.1425 6.7073 38.7202 4.28504C36.2927 1.85759 33.3581 1.10711 30.0456 0.946657C27.1885 0.786207 24.3574 0.812086 21.5055 0.812086C18.6485 0.812086 15.8174 0.786207 12.9655 0.946657C9.653 1.10711 6.71316 1.86277 4.29089 4.28504C1.86345 6.71248 1.11297 9.64714 0.952516 12.9596C0.792067 15.8167 0.817946 18.6478 0.817946 21.4997C0.817946 24.3515 0.792067 27.1879 0.952516 30.0397C1.11297 33.3522 1.86863 36.2921 4.29089 38.7143C6.71834 41.1418 9.653 41.8923 12.9655 42.0527C15.8225 42.2132 18.6537 42.1873 21.5055 42.1873C24.3626 42.1873 27.1937 42.2132 30.0456 42.0527C33.3581 41.8923 36.2979 41.1366 38.7202 38.7143C41.1476 36.2869 41.8981 33.3522 42.0586 30.0397C42.2242 27.1879 42.1931 24.3567 42.1931 21.4997ZM21.5004 32.1152C15.6259 32.1152 10.8848 27.3742 10.8848 21.4997C10.8848 15.6252 15.6259 10.8842 21.5004 10.8842C27.3749 10.8842 32.1159 15.6252 32.1159 21.4997C32.1159 27.3742 27.3749 32.1152 21.5004 32.1152ZM32.5507 12.9286C31.1791 12.9286 30.0715 11.821 30.0715 10.4494C30.0715 9.07781 31.1791 7.97019 32.5507 7.97019C33.9222 7.97019 35.0299 9.07781 35.0299 10.4494C35.0303 10.7751 34.9664 11.0976 34.842 11.3986C34.7175 11.6996 34.5349 11.9731 34.3046 12.2034C34.0743 12.4337 33.8009 12.6163 33.4999 12.7407C33.1989 12.8652 32.8763 12.929 32.5507 12.9286Z" fill="#00DD87"/>
</svg>
