<svg width="40" height="39" viewBox="0 0 40 39" fill="none" xmlns="http://www.w3.org/2000/svg">
<path d="M9.08033 39V12.6868H0.505888V39H9.08033ZM4.79422 9.09199C7.78428 9.09199 9.64545 7.07144 9.64545 4.54643C9.58974 1.96447 7.78439 0 4.85096 0C1.91799 0 0 1.96451 0 4.54643C0 7.07156 1.86071 9.09199 4.73824 9.09199H4.79395H4.79422ZM13.8263 39H22.4007V24.3054C22.4007 23.519 22.4564 22.7334 22.6828 22.1712C23.3027 20.5999 24.7135 18.9725 27.0822 18.9725C30.1849 18.9725 31.4262 21.3855 31.4262 24.9228V38.9998H40.0001V23.9121C40.0001 15.8297 35.7699 12.069 30.1284 12.069C25.5029 12.069 23.4719 14.7063 22.3437 16.5025H22.4009V12.6862H13.8265C13.939 15.1553 13.8265 38.9995 13.8265 38.9995L13.8263 39Z" fill="#00DD87"/>
</svg>
