<svg width="47" height="33" viewBox="0 0 47 33" fill="none" xmlns="http://www.w3.org/2000/svg">
<path d="M45.7196 5.32549C45.4556 4.34229 44.938 3.44567 44.2186 2.72536C43.4992 2.00505 42.6033 1.48633 41.6204 1.22109C38.0025 0.248047 23.5 0.248047 23.5 0.248047C23.5 0.248047 8.99746 0.248047 5.37959 1.21592C4.3963 1.48029 3.49987 1.99873 2.78034 2.71917C2.06081 3.43961 1.5435 4.33669 1.28037 5.32031C0.3125 8.94336 0.3125 16.5 0.3125 16.5C0.3125 16.5 0.3125 24.0566 1.28037 27.6745C1.81348 29.6724 3.38691 31.2458 5.37959 31.7789C8.99746 32.752 23.5 32.752 23.5 32.752C23.5 32.752 38.0025 32.752 41.6204 31.7789C43.6183 31.2458 45.1865 29.6724 45.7196 27.6745C46.6875 24.0566 46.6875 16.5 46.6875 16.5C46.6875 16.5 46.6875 8.94336 45.7196 5.32549ZM18.8936 23.4355V9.56445L30.9014 16.4482L18.8936 23.4355Z" fill="#00DD87"/>
</svg>
